<svg xmlns="http://www.w3.org/2000/svg" viewBox="0 0 24 24" fill="none" stroke="#25D366" stroke-width="1.8" stroke-linecap="round" stroke-linejoin="round">
  <path d="M20 11.5A8 8 0 0 1 8.5 19l-4.5 1 1-4.3A8 8 0 1 1 20 11.5Z"/>
  <path d="M9 8.5c.3-.6.6-.6.8-.6h.6c.2 0 .5 0 .7.5.3.7 1 2.4 1 2.6 0 .2 0 .4-.2.6l-.5.5c-.2.1-.3.3-.1.6.2.3.9 1.5 2.2 2.4 1.6 1.1 2.8 1.4 3.2 1.6.4.1.6.1.8-.1l1-.9c.2-.2.5-.2.8-.1l2 .9c.3.2.5.3.6.5.1.2.1 1.1-.3 1.6-.3.5-2 1.2-2.7 1.2-.7 0-1.6.2-5-1.3-2.8-1.3-4.5-4.5-4.7-4.8-.2-.3-1.1-1.5-1.1-2.9 0-1.4.8-2.1 1.1-2.4Z"/>
</svg>
